<?xml version="1.0" encoding="UTF-8"?>
<svg version="1.1" xmlns="http://www.w3.org/2000/svg" width="500" height="500">
<path d="M0 0 C165 0 330 0 500 0 C500 165 500 330 500 500 C335 500 170 500 0 500 C0 335 0 170 0 0 Z " fill="#26272A" transform="translate(0,0)"/>
<path d="M0 0 C5.30369274 -0.31151207 8.86784483 0.27466961 13 3.734375 C16.28174406 7.35340942 17.26097642 11.10221428 17.84375 15.84765625 C17.23316905 20.645078 15.25575055 23.54134145 11.765625 26.83203125 C7.93143457 29.19348629 3.60146448 29.81588939 -0.75 30.74609375 C-4.732586 31.65257788 -7.47601357 32.64707158 -10.59375 35.28515625 C-11.25375 35.28515625 -11.91375 35.28515625 -12.59375 35.28515625 C-12.861875 35.84203125 -13.13 36.39890625 -13.40625 36.97265625 C-14.59375 39.28515625 -14.59375 39.28515625 -16.14304829 41.46501446 C-17.93313493 44.94491533 -18.01947901 47.89989866 -17.99247742 51.71992493 C-17.99912424 52.45923648 -18.00577107 53.19854802 -18.01261932 53.96026295 C-18.03124086 56.43238964 -18.02864466 58.90403197 -18.02612305 61.3762207 C-18.03514074 63.15034163 -18.04546797 64.92445631 -18.05700684 66.69856262 C-18.08460215 71.51217903 -18.09386481 76.3256773 -18.09986091 81.13936257 C-18.10923796 86.17093357 -18.13544082 91.2024161 -18.15986633 96.2339325 C-18.20355339 105.76064366 -18.23208682 115.28733767 -18.25518972 124.81411856 C-18.28222954 135.66051189 -18.32614182 146.50681632 -18.37147844 157.3531462 C-18.46435633 179.66376803 -18.5360227 201.97441774 -18.59375 224.28515625 C-18.09058825 224.00273952 -17.58742649 223.7203228 -17.06901741 223.42934799 C-8.23992608 219.16253217 0.68216302 219.71011057 10.25830078 219.73925781 C12.16123801 219.73051308 14.06416789 219.72002418 15.96708679 219.70793152 C21.10895157 219.68016119 26.25057535 219.67666485 31.39250422 219.67765141 C36.77506005 219.67451459 42.15750858 219.64888038 47.54000854 219.62567139 C57.72176472 219.58516672 67.90345694 219.56478366 78.08528125 219.55169749 C91.85157594 219.53283531 105.61775517 219.48275294 119.38397217 219.43445396 C141.05805877 219.35923026 162.73200597 219.32560082 184.40625 219.28515625 C184.73625 156.58515625 185.06625 93.88515625 185.40625 29.28515625 C179.13625 29.28515625 172.86625 29.28515625 166.40625 29.28515625 C158.42163462 23.96207933 158.42163462 23.96207933 156.71875 19.47265625 C156.03148033 14.66176857 155.80290285 11.40565809 158.15625 7.03515625 C162.00922711 2.325962 164.39485833 1.07767328 170.40625 0.28515625 C174.98517463 0.07480682 179.5631923 0.05724328 184.14624023 0.04492188 C186.33420591 0.03519866 188.52123775 0.00411694 190.70898438 -0.02734375 C192.11718199 -0.03387389 193.52538624 -0.03912432 194.93359375 -0.04296875 C196.19937256 -0.05231445 197.46515137 -0.06166016 198.76928711 -0.07128906 C203.48277305 0.3906623 207.48302196 1.62928278 211.1484375 4.78515625 C214.39583264 9.08515533 215.53068788 11.93007338 215.53488445 17.25748825 C215.5381089 18.29022959 215.54133335 19.32297094 215.5446555 20.38700747 C215.5431069 21.52521481 215.5415583 22.66342214 215.53996277 23.83612061 C215.54222833 25.04247642 215.54449388 26.24883223 215.54682809 27.49174428 C215.55207535 30.84633548 215.55281092 34.20087321 215.55163372 37.55546474 C215.55143004 41.17112553 215.55694532 44.78677825 215.56169128 48.4024353 C215.57000619 55.4890604 215.57274652 62.57567719 215.57330366 69.66230676 C215.57377851 75.42256983 215.57583167 81.18283015 215.57900429 86.94309235 C215.5878138 103.26981806 215.5924233 119.5965372 215.59167381 135.92326531 C215.59161388 137.24418843 215.59161388 137.24418843 215.59155273 138.59179688 C215.59151185 139.47348617 215.59147097 140.35517546 215.59142885 141.26358262 C215.59102249 155.54969773 215.60058892 169.83578648 215.6146911 184.12189397 C215.62905249 198.78619555 215.63596139 213.45048427 215.63509732 228.11479306 C215.63476523 236.34945619 215.63751757 244.58409168 215.64827538 252.81874847 C215.65737734 259.83099272 215.65955819 266.84319681 215.65276595 273.8554444 C215.64949897 277.4329813 215.64945042 281.01044115 215.6581192 284.58797073 C215.66742284 288.46743535 215.66121262 292.34678724 215.65348816 296.22625732 C215.65863172 297.35554177 215.66377529 298.48482622 215.66907471 299.6483314 C215.61192486 312.61197422 215.61192486 312.61197422 211.96875 317.02734375 C206.63834583 320.89188677 203.60910635 321.43511304 197.12895203 321.4390564 C196.26253533 321.44343865 195.39611863 321.4478209 194.50344688 321.45233595 C191.58261805 321.46575461 188.66181941 321.47190984 185.7409668 321.47802734 C183.65341555 321.48592628 181.56586568 321.4941951 179.47831726 321.50280762 C172.60404775 321.52906531 165.72977206 321.54434514 158.85546875 321.55859375 C156.48889474 321.56395306 154.12232077 321.56933056 151.75574684 321.5747261 C141.90688321 321.59636581 132.05802123 321.61509991 122.20913982 321.6263485 C108.10085096 321.64256738 93.99283844 321.67568282 79.88465375 321.73274934 C69.96347322 321.77150745 60.0423664 321.79098851 50.12111217 321.79626906 C44.19779515 321.7999162 38.27477261 321.81186904 32.3515377 321.8443718 C26.77088022 321.87455314 21.1906938 321.88072821 15.609972 321.86898804 C13.56907771 321.8687681 11.52816094 321.87700617 9.48734283 321.89464188 C-7.08284562 322.02995588 -19.73584824 319.78116187 -32.59375 308.28515625 C-44.52353613 295.47168226 -48.73778293 282.03780077 -48.74765015 264.72323608 C-48.7520324 263.77904332 -48.75641465 262.83485055 -48.7609297 261.86204588 C-48.77425111 258.70799593 -48.7804815 255.55397386 -48.78662109 252.39990234 C-48.79452722 250.13427608 -48.80279649 247.86865106 -48.81140137 245.60302734 C-48.83755923 238.17156161 -48.85292137 230.74009041 -48.8671875 223.30859375 C-48.87254947 220.74605939 -48.87792699 218.18352505 -48.88331985 215.62099075 C-48.90493814 204.9595527 -48.92382456 194.29811746 -48.93494225 183.63666344 C-48.93787151 180.8744748 -48.94083325 178.1122862 -48.94384766 175.35009766 C-48.94459371 174.66364358 -48.94533976 173.97718949 -48.94610842 173.26993378 C-48.95875476 162.15665728 -48.99197391 151.04354102 -49.03364949 139.93033938 C-49.07616052 128.49996775 -49.09924057 117.06971756 -49.10486281 105.63925993 C-49.10851014 99.22977205 -49.12046673 92.82055627 -49.15296555 86.41114426 C-49.18311871 80.37818315 -49.18933185 74.3456578 -49.17758179 68.31263733 C-49.17736167 66.10564674 -49.18561482 63.89863549 -49.20323563 61.69171524 C-49.33914914 43.68056319 -46.71471957 29.47661298 -34.15625 15.58984375 C-24.412023 6.10055292 -13.36544025 1.46939328 0 0 Z " fill="#088FAF" transform="translate(166.59375,88.71484375)"/>
<path d="M0 0 C0.77435467 -0.00085442 1.54870934 -0.00170885 2.3465293 -0.00258917 C4.94912655 -0.00424026 7.55165977 0.00127138 10.1542511 0.00672913 C12.01673888 0.0070111 13.87922676 0.00685306 15.74171448 0.00628662 C20.80543461 0.00599906 25.86913118 0.01188917 30.93284583 0.01886058 C36.22196315 0.02510094 41.51108098 0.02569846 46.80020142 0.02688599 C56.81928388 0.02999728 66.83835547 0.03820797 76.85743314 0.04823548 C88.26236285 0.05940285 99.66729307 0.06490864 111.07222688 0.06993091 C134.53618053 0.08039074 158.00011926 0.09873373 181.46406555 0.12025452 C181.46406555 14.64025452 181.46406555 29.16025452 181.46406555 44.12025452 C157.09007159 44.21056974 132.71621324 44.2842453 108.34209442 44.3275032 C97.02461758 44.348123 85.70725214 44.37623258 74.3898468 44.42201233 C64.5248868 44.46189778 54.66000748 44.48769157 44.79496908 44.4966085 C39.57212428 44.50182031 34.34951029 44.51405808 29.1267395 44.54317474 C24.20854001 44.5703707 19.29066592 44.57869101 14.37239838 44.57268524 C12.56967652 44.5737836 10.76694352 44.58171253 8.9642868 44.59707642 C6.49689821 44.61707019 4.03072733 44.61216015 1.56330872 44.60127258 C0.85511317 44.61292395 0.14691762 44.62457531 -0.5827384 44.63657975 C-6.81618242 44.56257281 -12.16311953 42.50681161 -16.55937195 38.08509827 C-17.22839539 37.08156311 -17.22839539 37.08156311 -17.91093445 36.05775452 C-18.60316101 35.05035217 -18.60316101 35.05035217 -19.30937195 34.02259827 C-19.71413757 33.39482483 -20.1189032 32.76705139 -20.53593445 32.12025452 C-21.19593445 31.13025452 -21.85593445 30.14025452 -22.53593445 29.12025452 C-23.35862582 22.45170809 -24.05753705 15.15069942 -19.91093445 9.49525452 C-18.2585907 7.70228577 -18.2585907 7.70228577 -16.53593445 6.12025452 C-15.99839539 5.6084967 -15.46085632 5.09673889 -14.9070282 4.56947327 C-10.08176976 0.27632353 -6.19076407 -0.02481621 0 0 Z " fill="#26272A" transform="translate(170.5359344482422,337.87974548339844)"/>
<path d="M0 0 C3.65543155 2.10808382 6.43635097 4.55276995 9.13525391 7.78369141 C13.17115927 12.48329743 17.50870292 16.82826117 21.91015625 21.18359375 C22.74132965 22.01098053 23.57250305 22.83836731 24.42886353 23.69082642 C27.05821983 26.30805946 29.69081018 28.92200096 32.32421875 31.53515625 C35.8140401 34.99845824 39.30058633 38.46500908 42.78515625 41.93359375 C43.99128067 43.12727066 43.99128067 43.12727066 45.22177124 44.34506226 C46.32895004 45.44728622 46.32895004 45.44728622 47.45849609 46.57177734 C48.11022797 47.2182724 48.76195984 47.86476746 49.43344116 48.53085327 C52.73141898 52.07583581 52.28114735 55.76088433 52.2265625 60.39453125 C51.83519921 64.29713988 50.63542072 66.33257523 47.94921875 69.16015625 C43.54120464 72.16562041 39.17529916 73.14004633 33.94921875 72.16015625 C27.47164854 69.74224421 23.30931017 64.85501128 18.57421875 59.97265625 C17.74277344 59.12767578 16.91132813 58.28269531 16.0546875 57.41210938 C14.01255519 55.33476788 11.97777975 53.25073817 9.94921875 51.16015625 C9.94557312 51.80637939 9.94192749 52.45260254 9.93817139 53.1184082 C9.89623746 59.86754834 9.82681518 66.61601535 9.74169922 73.36474609 C9.71353998 75.880628 9.69230047 78.39659755 9.67822266 80.91259766 C9.65672419 84.53723861 9.61003505 88.16083142 9.55859375 91.78515625 C9.55736511 92.90317627 9.55613647 94.02119629 9.55487061 95.1730957 C9.42898332 101.94349125 8.55536335 106.3862825 4.94921875 112.16015625 C0.84366873 116.01688506 -3.32791167 116.52685928 -8.76953125 116.4296875 C-12.46813015 115.99269551 -14.34675756 114.67552712 -17.05078125 112.16015625 C-21.32879415 105.3655498 -21.65145567 99.70239836 -21.66015625 91.78515625 C-21.6766925 90.62008545 -21.69322876 89.45501465 -21.71026611 88.25463867 C-21.75860677 84.55642348 -21.78008718 80.85861913 -21.80078125 77.16015625 C-21.82895241 74.64320865 -21.85888143 72.12628008 -21.890625 69.609375 C-21.96436224 63.45970965 -22.01608637 57.31015919 -22.05078125 51.16015625 C-22.60016357 51.72524902 -23.1495459 52.2903418 -23.71557617 52.87255859 C-26.21520514 55.43464535 -28.72654153 57.98494349 -31.23828125 60.53515625 C-32.10259766 61.42460937 -32.96691406 62.3140625 -33.85742188 63.23046875 C-35.1190918 64.50664062 -35.1190918 64.50664062 -36.40625 65.80859375 C-37.17606201 66.59411621 -37.94587402 67.37963867 -38.73901367 68.18896484 C-43.03533194 71.85233729 -47.26327744 72.66629156 -52.765625 72.546875 C-56.59767151 71.89837482 -59.39935043 69.95113606 -62.05078125 67.16015625 C-63.96777975 64.1033208 -64.45442098 61.49732355 -64.61328125 57.91015625 C-64.70802734 56.57210937 -64.70802734 56.57210937 -64.8046875 55.20703125 C-62.86364526 47.36240456 -53.8168018 40.79152664 -48.23046875 35.2421875 C-47.40878204 34.42191574 -46.58709534 33.60164398 -45.74050903 32.7565155 C-43.13795974 30.15951645 -40.53194472 27.56602784 -37.92578125 24.97265625 C-36.16903831 23.22093628 -34.41252576 21.46898523 -32.65625 19.71679688 C-28.74575966 15.81618703 -24.83352646 11.917342 -20.91766357 8.02212524 C-19.31533068 6.42400943 -17.72147167 4.81802487 -16.12939453 3.2097168 C-11.56174948 -1.29408638 -6.04083284 -2.47386488 0 0 Z " fill="#088FB0" transform="translate(256.05078125,162.83984375)"/>
<path d="M0 0 C1.10794922 -0.04253906 1.10794922 -0.04253906 2.23828125 -0.0859375 C7.73660259 0.9488343 11.83450224 5.27241038 15.66723633 9.11181641 C16.12492401 9.56760574 16.58261169 10.02339508 17.0541687 10.49299622 C18.54753661 11.98269527 20.03364261 13.47940629 21.51953125 14.9765625 C22.5619463 16.02017113 23.60473291 17.06340874 24.64787292 18.10629272 C26.82362245 20.2836001 28.99598944 22.46420696 31.16577148 24.64746094 C33.94937807 27.44813045 36.73959645 30.24209774 39.53212452 33.03386879 C41.68135177 35.18336752 43.82796659 37.33545886 45.97369957 39.48844528 C47.00217366 40.52010329 48.03125607 41.55115521 49.06095314 42.58159256 C50.49473666 44.01753835 51.92482948 45.45716645 53.35473633 46.89697266 C54.16936844 47.71541656 54.98400055 48.53386047 55.82331848 49.37710571 C59.19227428 52.98770773 59.02692423 55.99232553 58.96484375 60.765625 C58.51958438 64.95482583 57.27983169 67.03225651 54.6875 70.375 C50.77676038 73.13029382 47.46076622 73.71533417 42.8125 73.7734375 C35.88934641 72.4753462 31.59189268 67.67790232 26.8828125 62.86328125 C25.7968428 61.77094429 25.7968428 61.77094429 24.68893433 60.65653992 C22.38962157 58.34050201 20.10098995 56.01422764 17.8125 53.6875 C16.25069458 52.11063987 14.68820188 50.53446014 13.125 48.95898438 C9.30450447 45.10550135 5.49271336 41.24357133 1.6875 37.375 C-1.29449984 38.71250325 -3.34677323 40.17339483 -5.62475586 42.5078125 C-6.24897934 43.14187012 -6.87320282 43.77592773 -7.51634216 44.42919922 C-8.17997269 45.11256348 -8.84360321 45.79592773 -9.52734375 46.5 C-10.94975035 47.9428261 -12.37228019 49.38553071 -13.79492188 50.828125 C-16.02690602 53.10362288 -18.25636935 55.38152324 -20.4831543 57.66210938 C-22.63726429 59.86452207 -24.80051832 62.05763214 -26.96484375 64.25 C-27.95725319 65.27504639 -27.95725319 65.27504639 -28.9697113 66.32080078 C-33.44557433 70.84433478 -37.11495624 73.61081544 -43.6875 73.8125 C-48.00897834 73.71871166 -50.51419054 72.45455619 -53.90234375 69.859375 C-56.95773841 66.6431701 -57.68178652 63.48788508 -57.875 59.125 C-57.96974609 57.78695312 -57.96974609 57.78695312 -58.06640625 56.421875 C-56.02187545 48.1590044 -46.17338241 41.0898501 -40.328125 35.2578125 C-39.38110037 34.31011248 -38.43422407 33.36226421 -37.48748779 32.41427612 C-35.51915443 30.44448043 -33.54905399 28.47647472 -31.57763672 26.50976562 C-29.05352546 23.99139028 -26.53398411 21.46849781 -24.01572037 18.94427681 C-21.60144734 16.52552569 -19.18337667 14.11058648 -16.765625 11.6953125 C-15.86249573 10.790159 -14.95936646 9.88500549 -14.02886963 8.9524231 C-13.19079773 8.11750336 -12.35272583 7.28258362 -11.48925781 6.42236328 C-10.7531427 5.68704376 -10.01702759 4.95172424 -9.25860596 4.19412231 C-6.19851732 1.33370482 -4.14852402 0.07164981 0 0 Z " fill="#0890B1" transform="translate(249.3125,88.625)"/>
<path d="M0 0 C0.33 0 0.66 0 1 0 C1 3.63 1 7.26 1 11 C-2.63 11 -6.26 11 -10 11 C-8.68 10.01 -7.36 9.02 -6 8 C-2.18639116 4.53745431 -2.18639116 4.53745431 0 0 Z " fill="#000000" transform="translate(499,489)"/>
<path d="M0 0 C0.99 1.32 1.98 2.64 3 4 C5.57483343 6.7035751 7.88872809 8.92581873 11 11 C7.37 11 3.74 11 0 11 C0 7.37 0 3.74 0 0 Z " fill="#000000" transform="translate(0,489)"/>
<path d="M0 0 C3.63 0 7.26 0 11 0 C11 3.63 11 7.26 11 11 C10.01 9.68 9.02 8.36 8 7 C5.42516657 4.2964249 3.11127191 2.07418127 0 0 Z " fill="#000000" transform="translate(489,0)"/>
<path d="M0 0 C3.63 0 7.26 0 11 0 C9.68 0.99 8.36 1.98 7 3 C4.2964249 5.57483343 2.07418127 7.88872809 0 11 C0 7.37 0 3.74 0 0 Z " fill="#000000" transform="translate(0,0)"/>
</svg>
